<svg width="573" height="107" viewBox="0 0 573 107" version="1.1" xmlns="http://www.w3.org/2000/svg" xmlns:xlink="http://www.w3.org/1999/xlink">
<title>Vector</title>
<desc>Created using Figma</desc>
<g id="Canvas" transform="translate(4719 -56)">
<g id="Vector" style="mix-blend-mode:overlay">
<use xlink:href="#path0_fill" transform="translate(-4719 56)" fill="url(#paint0_linear)"/>
</g>
</g>
<defs>
<linearGradient id="paint0_linear" x1="0" y1="0" x2="1" y2="0" gradientUnits="userSpaceOnUse" gradientTransform="matrix(3.50861e-14 107 -573 6.55186e-15 573 -6.55186e-15)">
<stop offset="0" stop-color="#FFE800"/>
<stop offset="1" stop-color="#FFC00D"/>
</linearGradient>
<path id="path0_fill" d="M 572.863 68.3417C 569.532 68.9553 565.535 68.3417 560.873 66.5008C 561.539 65.8872 562.205 64.66 562.205 62.8191C 560.873 64.0463 560.207 64.66 558.874 65.2736C 557.542 64.66 556.21 64.0463 554.878 63.4327C 554.878 63.4327 554.878 62.8191 555.544 62.8191C 555.544 62.2055 555.544 62.2055 555.544 62.2055C 558.208 61.5918 560.207 59.751 562.205 56.6828C 560.873 54.842 558.874 59.1373 558.208 56.0692C 556.876 60.9782 553.545 60.3646 552.213 61.5918C 552.213 61.5918 552.213 61.5918 552.213 62.2055C 552.213 62.2055 552.213 62.2055 552.879 62.2055C 549.549 60.9782 546.884 59.1373 543.554 57.9101C 544.886 57.9101 546.218 57.2965 547.55 57.2965C 548.882 57.9101 549.549 58.5237 550.881 59.1373C 551.547 57.2965 549.549 56.6828 547.55 56.0692C 546.218 54.842 545.552 54.842 544.22 54.842C 544.22 54.842 543.554 54.842 543.554 54.2284C 545.552 51.7739 552.879 54.842 556.21 53.0011C 555.544 53.0011 555.544 53.0011 555.544 54.2284C 556.876 56.6828 557.542 53.6147 558.874 52.3875C 560.207 52.3875 561.539 51.7739 562.205 49.933C 560.873 50.5466 559.54 51.1602 558.208 52.3875C 558.208 52.3875 558.208 52.3875 557.542 51.7739L 557.542 51.1602C 551.547 46.8649 546.218 46.8649 541.555 46.2512L 542.221 46.2512C 545.552 46.2512 548.883 45.6376 552.213 45.024C 552.879 46.2512 556.876 46.2512 558.874 46.2512C 556.21 43.1831 554.211 45.6376 552.879 44.4104C 556.21 43.1831 558.874 41.3423 561.539 38.2741C 560.207 32.7515 562.871 28.4562 563.537 23.5472C 552.213 21.7063 540.223 27.8425 528.899 21.0927C 528.233 22.3199 528.233 27.2289 527.567 27.8425C 524.236 29.6834 522.904 25.388 520.239 23.5472C 516.243 21.0927 510.248 22.3199 505.585 21.7063C 498.257 21.0927 491.596 20.479 484.269 21.7063C 484.935 22.3199 485.601 22.9335 485.601 24.7744C 480.938 34.5924 476.942 19.2518 471.613 21.7063C 471.613 25.388 473.611 23.5472 473.611 27.2289C 470.947 29.6834 468.282 28.4562 465.618 27.2289C 466.284 26.0017 467.616 26.0017 468.282 24.7744C 467.616 22.9335 465.618 24.1608 464.285 24.1608C 463.619 25.388 464.285 28.4562 463.619 29.0698C 459.622 28.4562 454.293 29.0698 450.963 29.0698C 451.629 26.6153 452.961 27.2289 452.961 24.1608C 450.297 24.1608 448.965 27.8425 446.966 29.6834C 445.634 30.297 446.3 26.6153 444.968 27.2289C 444.302 27.8425 444.302 30.297 442.969 29.6834C 428.315 31.5243 412.328 31.5243 397.007 32.1379C 389.68 32.1379 381.686 32.1379 373.693 31.5243C 359.038 31.5243 343.718 30.9107 327.731 30.9107C 328.397 28.4562 329.729 28.4562 330.395 28.4562C 325.732 26.6153 313.742 24.7744 307.081 28.4562C 308.413 32.1379 309.079 27.8425 310.412 27.8425C 312.41 27.8425 315.075 31.5243 317.739 30.9107C 320.404 30.9107 322.402 27.8425 324.4 30.9107C 302.418 30.9107 278.438 31.5243 256.456 32.1379C 257.122 31.5243 258.454 30.297 259.121 29.0698C 257.122 29.0698 251.793 27.8425 248.463 32.1379C 247.796 32.1379 247.13 32.1379 246.464 32.1379C 246.464 30.297 245.798 29.6834 245.132 29.6834C 245.132 31.5243 245.132 32.1379 245.798 32.1379C 235.14 32.1379 224.482 32.7515 214.49 32.7515C 201.168 32.1379 196.505 34.5924 188.512 35.8196C 167.196 38.8878 140.551 37.0469 119.235 40.7286C 114.573 42.5695 108.577 44.4104 101.916 45.024C 94.589 45.024 87.2617 46.2512 79.9343 46.8649C 79.2682 46.8649 79.9343 45.6376 79.9343 45.024C 79.9343 46.8649 78.6021 45.6376 78.6021 46.8649C 75.2715 46.8649 72.607 46.8649 69.2764 45.6376L 68.6103 45.6376C 69.2764 45.6376 69.2764 45.024 69.2764 43.1831C 67.9442 43.7967 66.6119 40.7286 65.9458 43.7967C 65.9458 43.7967 65.9458 44.4104 66.612 44.4104C 66.612 44.4104 65.9458 44.4104 65.2797 43.7967L 65.2797 43.1831C 63.9475 42.5695 61.9491 41.9559 60.6169 43.1831C 58.6185 43.1831 55.954 43.1831 53.9557 43.1831C 53.9557 43.1831 53.9557 43.1831 53.9557 42.5695C 53.2896 41.9559 52.6234 41.9559 51.9573 43.1831C 39.3011 43.1831 25.9787 43.1831 13.3224 41.3423C 13.9885 43.7967 15.9869 43.7967 15.9869 47.4785C 24.6464 47.4785 32.6399 48.7057 41.2994 49.3194C 41.2994 50.5466 39.9672 49.933 39.9672 51.1602C 40.6333 51.1602 40.6333 53.6147 41.2994 53.0011C 41.2994 52.3875 41.9655 50.5466 41.9655 49.3194C 43.2978 49.3194 44.63 49.3194 45.9622 49.933C 45.9622 51.7739 44.63 49.933 43.9639 51.7739C 43.9639 51.7739 44.63 52.3875 43.9639 53.6147C 45.2961 54.842 45.9622 51.1602 45.9622 49.933C 53.2896 50.5466 61.283 51.1602 68.6103 51.1602C 67.9442 51.1602 67.9442 51.1602 67.9442 51.7739L 67.9442 52.3875C 66.612 52.3875 65.2797 52.3875 63.9475 52.3875C 63.2814 51.1602 62.6152 51.1602 61.9491 52.3875C 58.6185 53.0011 54.6218 53.6147 51.2912 53.6147C 51.2912 51.7739 50.6251 51.1602 49.959 51.1602C 49.959 53.0011 49.959 53.6147 50.6251 53.6147C 47.9606 54.2284 45.9622 54.842 43.9639 55.4556C 34.6382 53.6147 14.6546 52.3875 5.32896 54.842C 3.3306 56.6828 7.32731 57.2965 6.6612 60.9782C 4.66284 64.0463 1.33224 59.1373 0 60.9782C 3.3306 69.5689 8.65955 68.9553 13.3224 69.5689C 27.977 68.9553 55.2879 73.2507 71.9409 70.1826C 77.936 70.7962 83.2649 69.5689 88.5939 68.9553C 97.9196 68.3417 107.245 69.569 116.571 68.3417C 115.905 67.1145 115.239 66.5008 114.573 65.8872C 115.905 65.8872 117.237 66.5008 118.569 66.5008C 118.569 66.5008 119.235 66.5008 119.235 67.1144C 118.569 67.1144 118.569 67.1145 118.569 68.3417C 119.235 67.7281 121.234 69.5689 121.9 67.1144C 127.895 64.66 145.88 65.2736 153.874 65.8872C 144.548 66.5008 135.888 67.1145 127.895 67.7281C 128.561 67.7281 128.561 67.1145 127.895 66.5008C 127.229 67.1145 124.564 65.8872 125.23 67.7281C 95.9212 70.1826 82.5988 72.6371 112.574 74.4779C 106.579 75.7052 100.584 76.3188 93.9229 77.5461C 91.2584 77.5461 88.5939 77.5461 85.9294 78.1597C 85.9294 78.1597 86.5955 78.1597 87.2617 78.7733C 77.936 80.0006 69.2764 80.6142 59.2846 81.2278C 70.6087 84.9095 87.2617 82.4551 102.582 80.6142C 105.247 80.6142 107.911 81.8414 109.91 84.9095C 111.908 78.7733 117.237 83.0687 119.902 81.2278C 119.902 81.2278 119.235 81.2278 119.235 80.6142L 119.902 80.6142C 121.234 81.8414 123.898 82.455 125.23 81.8414C 127.895 82.455 129.893 83.6823 131.892 84.9095C 121.9 87.9777 113.906 89.2049 102.582 90.4322C 107.245 92.8867 113.906 93.5003 121.9 92.8867C 121.9 93.5003 121.9 93.5003 121.234 94.1139C 121.9 93.5003 123.232 94.1139 123.898 92.8867C 135.222 92.273 147.879 91.0458 158.536 91.6594C 156.538 92.273 154.54 92.8867 152.541 93.5003C 147.879 93.5003 143.216 94.1139 139.219 95.3411C 146.546 95.9548 154.54 96.5684 162.533 96.5684C 163.199 97.182 163.865 97.182 164.532 96.5684C 189.178 97.7956 213.824 100.864 239.137 96.5684C 241.801 97.182 244.466 97.7956 247.13 97.7956C 245.132 98.4093 243.134 99.0229 241.135 97.7956C 240.469 102.091 242.467 105.159 243.8 106.386C 244.466 106.386 244.466 102.091 245.798 102.705C 247.796 105.773 249.795 102.091 251.127 98.4093C 253.792 98.4093 256.456 98.4093 259.121 98.4093C 259.121 99.6365 259.12 101.477 258.454 102.091C 260.453 102.091 263.117 101.477 264.449 99.0229C 265.116 99.0229 265.116 99.0229 265.782 99.0229C 266.448 99.0229 267.114 99.0229 267.78 99.0229C 267.78 99.6365 267.114 99.6365 267.114 100.25C 267.78 101.477 269.112 100.864 269.112 99.0229C 269.778 99.0229 270.445 99.0229 271.111 99.0229C 271.111 99.6365 270.445 100.864 270.445 102.091C 271.777 101.477 273.775 101.477 274.441 99.6365C 275.107 99.6365 275.773 99.6365 276.44 99.6365C 276.44 99.6365 276.44 99.6365 276.44 100.25C 277.106 101.477 277.772 100.864 278.438 99.6365C 279.77 99.6365 281.769 99.6365 283.101 99.6365C 282.435 102.091 281.102 100.864 280.436 99.6365C 280.436 101.477 279.104 100.864 279.104 103.932C 283.101 103.932 285.765 99.6365 289.762 102.091C 289.762 101.477 290.428 100.864 290.428 99.6365C 291.094 99.6365 292.426 99.6365 293.093 99.6365C 293.093 100.25 293.093 100.25 293.093 100.864C 295.757 98.4093 299.754 102.091 302.418 100.25C 304.417 100.25 307.081 100.25 309.079 100.864C 309.079 100.864 309.079 100.864 309.079 101.477C 309.746 101.477 310.412 101.477 311.744 100.864C 335.724 102.091 359.038 103.318 378.356 102.705C 385.017 102.091 392.344 100.25 399.006 100.25C 405.001 100.25 408.331 102.705 413.66 103.318C 436.974 106.386 464.285 102.705 486.267 103.932C 480.938 102.091 472.279 102.705 466.95 100.864C 470.28 100.864 474.277 100.864 477.608 100.864C 488.932 101.477 502.254 103.318 511.58 100.864C 528.233 105.159 546.884 97.7956 564.203 98.4093C 560.206 97.7956 555.544 97.182 550.881 97.182C 554.211 96.5684 556.21 94.7275 556.21 92.8867C 552.879 91.0458 549.549 89.8185 546.218 89.2049C 548.216 88.5913 550.215 87.9777 551.547 86.7504C 554.878 86.7504 557.542 87.364 562.205 86.7504C 560.207 87.364 558.208 85.5232 555.544 84.2959C 556.876 83.0687 558.874 81.8414 560.206 80.6142C 564.869 80.6142 567.534 79.3869 568.2 76.3188C 566.202 75.7052 562.871 75.0916 560.206 73.8643C 560.206 72.0234 561.539 72.6371 562.205 71.4098C 560.873 71.4098 560.207 72.6371 558.874 70.7962C 558.874 70.1826 558.874 70.1826 559.54 70.1826C 565.535 70.1826 574.195 70.7962 572.863 68.3417ZM 89.9261 78.1597C 89.9261 78.1597 90.5923 78.1597 89.9261 78.1597C 90.5923 78.1597 89.9261 78.1597 89.9261 78.1597ZM 78.6021 50.5466C 81.2666 50.5466 83.9311 49.933 86.5955 49.3194C 85.2633 49.933 83.9311 50.5466 82.5988 51.1602C 79.2682 51.7739 75.9376 51.7739 72.607 52.3875C 71.9409 51.7739 71.2748 51.7739 70.6087 51.7739C 72.607 51.1602 75.9376 51.1602 78.6021 50.5466ZM 68.6103 55.4556C 68.6103 56.0692 69.2764 56.6828 69.2764 57.2965C 68.6103 57.2965 67.9442 57.2965 67.2781 57.2965C 62.6152 57.9101 57.9524 57.2965 53.9557 57.2965C 58.6185 56.0692 63.9475 56.0692 68.6103 55.4556ZM 90.5923 64.0463C 77.936 64.66 64.6136 65.2736 50.6251 62.8191C 55.954 62.2055 61.9491 62.2055 67.2781 61.5918C 67.9442 62.8191 69.9426 63.4327 69.9426 61.5918C 69.9426 61.5918 69.2764 61.5918 69.2764 60.9782C 85.9294 60.3646 101.916 59.751 117.903 60.9782C 109.91 62.8191 99.2518 62.8191 90.5923 64.0463ZM 165.198 92.273L 165.864 92.273C 165.864 92.273 165.864 92.273 166.53 92.273C 166.53 92.273 165.864 92.273 165.198 92.273ZM 132.558 54.842C 131.892 54.842 131.892 54.842 132.558 54.842C 122.566 55.4556 113.24 56.6828 103.915 57.2965C 99.9179 56.6828 95.9212 56.6828 91.2584 57.2965C 90.5923 57.2965 90.5923 57.2965 89.9261 57.2965L 89.9261 56.6828C 89.26 56.6828 89.26 55.4556 88.5939 56.0692C 88.5939 56.6828 88.5939 57.2965 88.5939 57.9101C 85.2633 57.9101 81.9327 58.5237 78.6021 58.5237C 77.936 57.9101 75.9376 55.4556 75.9376 58.5237C 73.9393 58.5237 71.9409 58.5237 69.9426 58.5237C 70.6087 57.9101 71.2748 57.2965 71.2748 56.0692C 85.9294 54.2284 101.916 52.3875 116.571 51.7739C 121.234 52.3875 126.563 53.0011 131.226 53.0011C 137.887 52.3875 144.548 51.7739 151.875 50.5466C 159.869 49.3194 165.198 50.5466 169.194 52.3875C 157.204 53.0011 144.548 53.6147 132.558 54.842ZM 200.502 51.1602C 200.502 50.5466 200.502 50.5466 200.502 49.933C 200.502 50.5466 199.836 51.1602 199.17 51.1602C 197.171 51.1602 195.173 50.5466 193.841 50.5466C 199.836 48.7057 217.821 47.4785 224.482 49.3194C 217.821 51.1602 207.829 51.7739 200.502 51.1602ZM 537.558 56.0692C 537.558 56.0692 536.892 56.0692 536.892 55.4556C 538.225 54.842 539.557 55.4556 540.889 55.4556C 539.557 55.4556 538.891 56.0692 537.558 56.0692ZM 553.545 64.0463C 553.545 64.0463 553.545 63.4327 553.545 64.0463C 553.545 63.4327 552.879 63.4327 552.879 63.4327L 553.545 63.4327C 553.545 63.4327 553.545 63.4327 553.545 64.0463ZM 288.43 26.0017C 288.43 29.6834 289.096 29.6834 290.428 29.0698C 291.094 24.1608 289.762 27.8425 288.43 26.0017ZM 297.089 12.5019C 293.093 11.8883 290.428 11.8883 287.764 14.9564C 290.428 13.7292 295.091 17.4109 297.089 12.5019ZM 296.423 8.82019C 295.757 4.52482 291.094 5.13845 290.428 8.82019C 292.426 9.43382 294.425 9.43382 296.423 8.82019ZM 303.75 28.4562C 304.417 29.6834 305.749 29.0698 306.415 29.0698C 307.081 26.0017 303.75 25.388 303.75 28.4562ZM 301.752 27.8425C 302.418 29.0698 303.75 29.0698 303.75 27.2289C 303.084 26.6153 301.752 24.1608 301.752 27.8425ZM 281.102 28.4562L 282.435 28.4562C 282.435 25.388 280.436 25.388 281.102 28.4562ZM 264.449 16.7973C 263.117 16.7973 261.785 14.3428 261.119 18.6382C 262.451 19.2518 263.783 18.6382 264.449 16.7973ZM 244.466 19.8654C 244.466 16.7973 241.801 17.4109 242.468 20.479C 243.8 19.8654 243.8 18.6382 244.466 19.8654ZM 235.806 22.3199C 236.472 21.0927 235.806 18.0245 235.806 17.4109C 235.806 19.2518 234.474 18.6382 234.474 20.479C 235.14 20.479 235.14 22.3199 235.806 22.3199ZM 345.716 30.297C 358.372 32.7515 373.027 28.4562 383.685 30.297C 383.685 27.8425 383.685 27.8425 383.685 25.388C 371.695 24.7744 356.374 26.6153 345.716 30.297ZM 273.109 16.7973C 275.773 16.1837 278.438 19.2518 280.436 16.7973C 280.436 14.9564 281.769 13.1156 281.102 12.5019C 275.773 14.3428 271.111 14.3428 265.782 15.5701C 267.114 23.5472 271.111 17.4109 273.109 16.7973ZM 279.104 25.388C 279.104 27.8425 278.438 28.4562 277.106 28.4562C 276.44 28.4562 276.44 24.7744 275.773 25.388C 275.107 27.2289 274.441 27.2289 273.109 26.0017C 273.109 27.8425 272.443 27.2289 272.443 29.0698C 275.107 29.6834 277.772 30.9107 280.436 27.2289C 279.77 27.8425 279.77 25.388 279.104 25.388ZM 263.783 31.5243C 264.449 29.6834 272.443 32.7515 269.112 27.2289C 267.78 26.6153 265.116 27.8425 264.449 26.6153C 264.449 29.0698 263.783 28.4562 263.783 31.5243ZM 251.793 18.6382C 250.461 17.4109 248.463 17.4109 248.463 20.479C 248.463 21.0927 251.127 20.479 251.793 18.6382ZM 396.341 25.388C 394.343 25.388 391.678 23.5472 389.68 24.7744C 389.68 26.0017 389.014 25.388 389.014 26.6153C 393.011 32.1379 396.341 25.388 401.67 27.2289C 401.004 21.7063 398.339 25.388 396.341 25.388ZM 478.274 4.52482C 476.942 4.52482 474.943 3.9112 474.943 6.97932C 475.609 7.59294 478.274 7.59294 478.274 4.52482ZM 514.91 6.3657C 514.91 3.29758 512.912 1.45671 512.246 4.52482C 513.578 3.9112 513.578 6.3657 514.91 6.3657ZM 494.927 5.13845L 494.927 7.59294C 495.593 6.97932 496.259 7.59294 496.925 5.75207C 496.925 5.13845 495.593 5.13845 494.927 5.13845ZM 230.477 16.7973C 229.811 15.5701 229.145 16.1837 229.145 18.0245C 229.811 19.2518 231.143 19.8654 230.477 16.7973ZM 564.869 12.5019C 565.535 10.0474 563.537 8.82019 563.537 10.6611C 564.203 10.6611 563.537 13.7292 564.869 12.5019ZM 558.874 18.0245C 557.542 10.0474 552.213 21.7063 550.215 14.9564C 550.215 14.9564 552.879 15.5701 552.879 12.5019C 549.549 13.1156 545.552 8.82019 543.554 14.9564C 543.554 9.43382 540.223 10.6611 538.891 11.8883C 540.223 11.8883 539.557 13.1156 539.557 16.1837C 536.226 17.4109 537.558 8.20657 534.894 10.6611C 534.228 14.3428 536.226 12.5019 535.56 15.5701C 532.896 17.4109 528.233 12.5019 525.568 18.0245C 536.226 21.7063 546.218 21.7063 558.874 18.0245ZM 534.228 13.7292C 534.228 11.2747 532.896 6.3657 532.229 10.6611C 532.229 11.8883 532.896 13.7292 534.228 13.7292ZM 510.914 2.68395C 510.914 5.75207 508.915 -0.99779 508.249 3.29758C 508.915 3.29758 512.246 6.3657 510.914 2.68395ZM 302.418 13.7292C 319.737 14.9564 338.389 15.5701 355.042 14.3428C 359.038 14.3428 363.035 16.1837 366.366 16.1837C 389.014 13.7292 411.662 16.7973 435.642 11.8883C 416.991 9.43382 397.673 12.5019 378.356 12.5019C 353.043 12.5019 327.065 9.43382 301.752 12.5019C 301.086 12.5019 301.086 13.1156 301.086 14.3428C 301.752 16.7973 302.418 13.7292 302.418 13.7292ZM 309.746 6.97932C 309.079 6.97932 309.079 6.97932 309.079 5.13845C 308.413 5.13845 308.413 5.75207 308.413 7.59294C 309.079 7.59294 309.746 8.82019 309.746 6.97932ZM 410.33 26.0017C 410.996 26.0017 410.996 27.2289 410.996 26.6153C 413.66 27.2289 418.323 26.0017 420.321 26.0017C 420.988 26.0017 422.986 29.0698 422.986 25.388C 420.988 22.9335 414.326 22.9335 410.33 26.0017ZM 455.626 14.3428C 461.621 11.2747 468.282 14.3428 474.277 14.3428C 475.609 14.3428 476.275 12.5019 477.608 12.5019C 490.93 13.1156 506.251 16.1837 521.572 15.5701C 522.904 13.7292 521.572 11.2747 521.572 10.6611C 524.236 10.6611 526.234 12.5019 526.234 7.59294C 523.57 10.0474 520.905 6.97932 518.241 6.97932C 511.58 6.3657 504.919 7.59294 498.257 6.3657C 498.257 7.59294 498.924 8.82019 498.257 9.43382C 479.606 7.59294 455.626 10.0474 435.642 11.2747C 440.971 19.2518 449.631 9.43381 455.626 14.3428ZM 432.978 26.6153C 434.31 26.0017 435.642 27.8425 438.973 26.0017C 436.308 25.388 434.31 24.1608 432.978 26.6153ZM 331.728 6.3657C 329.729 5.75207 325.732 3.29758 325.732 6.97932C 327.065 8.20657 331.061 9.43382 331.728 6.3657ZM 341.719 2.07033C 341.053 2.07033 340.387 2.07033 341.053 0.229458C 339.721 0.843082 338.389 -0.99779 337.723 0.843082C 338.389 2.07033 340.387 4.52482 341.719 2.07033ZM 293.759 28.4562C 294.425 28.4562 295.757 27.8425 296.423 26.6153C 295.091 26.0017 293.759 25.388 293.759 28.4562ZM 65.9458 78.1597C 66.6119 79.3869 67.9442 81.2278 67.9442 77.5461C 67.2781 77.5461 65.9458 76.3188 65.9458 78.1597ZM 72.607 83.6823C 71.9409 84.9095 69.9426 83.6823 69.9426 86.1368C 69.2764 83.6823 67.2781 86.7504 65.2797 86.1368C 65.9458 87.9777 67.9442 86.7504 69.9426 87.364C 70.6087 86.7504 72.607 88.5913 72.607 83.6823ZM 137.221 103.318C 137.221 105.773 136.555 105.159 137.221 107C 138.553 105.159 138.553 106.386 139.219 103.932C 137.887 103.932 137.887 102.705 137.221 103.318ZM 82.5988 76.3188C 76.6037 74.4779 61.9491 69.5689 56.6202 73.2507C 63.9475 75.0916 73.9393 78.1597 82.5988 76.3188ZM 45.9622 80.6142C 45.9622 80.6142 45.2961 81.2278 45.9622 82.455C 47.9606 83.0687 49.959 86.7504 52.6234 82.455C 49.2928 82.455 47.9606 79.3869 45.9622 80.6142ZM 153.874 103.318C 153.874 103.932 153.874 105.159 153.874 105.773C 155.206 105.773 156.538 105.773 157.87 105.159C 157.87 100.25 153.874 101.477 153.874 103.318ZM 214.49 104.546C 215.823 104.546 217.155 105.159 217.821 102.705C 217.155 101.477 215.157 102.705 214.49 104.546ZM 229.145 18.0245C 227.813 17.4109 227.813 20.479 227.147 21.7063C 227.813 21.7063 228.479 19.8654 229.145 18.0245ZM 234.474 106.386C 235.806 107 236.472 102.705 235.806 99.6365C 234.474 99.0229 234.474 102.705 234.474 106.386ZM 85.9294 76.3188C 84.5972 76.9324 83.2649 75.0916 82.5988 76.9324C 83.2649 78.1597 85.9294 79.3869 85.9294 76.3188ZM 223.816 100.864C 224.482 102.091 225.815 103.932 226.481 100.864C 226.481 100.25 224.482 99.6365 223.816 100.864ZM 28.6431 80.0006C 27.3109 81.8414 25.3125 78.1597 24.6464 82.455C 26.6448 83.0687 27.977 83.6823 28.6431 80.0006ZM 159.203 103.932C 161.201 105.773 161.867 108.841 163.199 104.546C 161.867 103.932 160.535 102.705 159.203 103.932ZM 162.533 22.9335C 162.533 25.388 165.864 26.0017 165.864 22.3199C 163.199 23.5472 159.203 20.479 157.87 24.1608C 160.535 24.1608 160.535 23.5472 162.533 22.9335ZM 172.525 22.9335C 173.191 19.2518 169.86 19.8654 169.86 22.9335C 171.193 25.388 171.859 22.9335 172.525 22.9335ZM 201.834 11.8883C 201.168 11.8883 199.836 11.2747 199.836 13.1156C 200.502 14.3428 202.5 14.9564 201.834 11.8883ZM 179.186 19.8654C 178.52 19.8654 175.189 19.2518 174.523 22.9335C 175.856 24.1608 178.52 22.9335 179.186 19.8654ZM 225.815 20.479C 225.148 20.479 224.482 18.6382 223.816 19.2518C 223.816 22.3199 222.484 17.4109 222.484 21.0927C 223.15 21.7063 225.148 21.0927 225.815 20.479ZM 210.494 21.0927C 211.16 21.7063 212.492 21.0927 212.492 19.8654C 211.826 16.7973 209.828 18.0245 210.494 13.1156C 208.495 13.1156 209.828 20.479 210.494 21.0927ZM 221.152 19.2518C 218.487 20.479 215.157 16.1837 214.49 21.7063C 216.489 22.9335 220.486 24.1608 221.152 19.2518ZM 207.829 16.7973C 207.163 13.7292 205.165 17.4109 204.499 17.4109C 202.5 14.3428 197.171 16.1837 195.839 19.2518C 194.507 15.5701 189.178 17.4109 187.18 19.2518C 195.173 22.9335 201.834 20.479 207.829 16.7973ZM 81.2666 26.0017C 93.2567 25.388 105.247 25.388 116.571 24.1608C 126.563 26.0017 135.888 25.388 145.214 24.1608C 147.212 24.1608 149.877 27.8425 151.875 21.7063C 139.885 24.1608 125.23 20.479 109.91 19.2518C 98.5857 21.7063 87.9278 22.3199 78.6021 22.9335C 77.2699 22.9335 75.9376 21.0927 74.6054 20.479C 70.6087 19.2518 67.9442 21.0927 65.2797 21.0927C 65.2797 21.0927 64.6136 21.7063 65.2797 22.9335L 65.9458 22.9335C 70.6087 22.9335 75.9376 25.388 81.2666 26.0017ZM 99.9179 15.5701C 98.5857 16.7973 96.5873 14.9564 96.5873 18.0245C 98.5857 16.7973 99.9179 20.479 99.9179 15.5701ZM 156.538 22.9335C 155.206 19.8654 152.541 21.0927 151.875 24.1608C 153.207 24.7744 155.872 24.1608 156.538 22.9335ZM 55.2879 85.5232C 53.9557 83.0687 52.6234 86.7504 50.6251 86.7504C 51.9573 88.5913 53.9557 85.5232 55.2879 85.5232ZM 95.9212 95.3411C 95.9212 94.1139 95.9212 93.5003 95.2551 93.5003C 71.2748 100.25 42.6316 87.364 17.3191 91.0458C 17.9852 95.3411 21.3158 92.273 22.6481 94.7275C 23.3142 99.0229 19.3175 93.5003 19.3175 97.7956C 39.9672 100.25 65.9458 108.227 84.5972 100.25C 74.6054 100.25 65.2797 98.4093 53.9557 98.4093C 66.612 94.7275 81.9327 97.7956 95.9212 95.3411ZM 561.539 57.9101C 560.873 60.3646 563.537 60.9782 564.869 59.751C 563.537 57.2965 561.539 59.1373 561.539 57.9101ZM 47.9606 86.1368C 48.6267 88.5913 49.959 84.2959 51.2912 85.5232C 50.6251 83.6823 47.9606 85.5232 47.9606 86.1368ZM 58.6185 86.7504C 58.6185 84.2959 56.6202 84.9095 55.954 86.1368C 55.954 87.9777 57.9524 86.1368 58.6185 86.7504ZM 76.6037 87.364C 77.2699 84.2959 75.2715 85.5232 74.6054 85.5232C 75.2715 86.7504 74.6054 87.364 73.9393 87.364C 75.2715 89.2049 75.9376 86.7504 76.6037 87.364ZM 17.3191 83.6823C 24.6464 88.5913 32.6399 87.364 41.2994 87.364C 41.2994 86.1368 41.2994 85.5232 40.6333 85.5232C 33.306 85.5232 23.3142 80.0006 17.3191 83.6823ZM 46.6284 87.364C 46.6284 83.0687 42.6316 85.5232 41.2994 86.7504C 42.6316 88.5913 44.63 87.9777 46.6284 87.364Z"/>
</defs>
</svg>
