<svg width="18" height="18" viewBox="0 0 18 18" version="1.1" xmlns="http://www.w3.org/2000/svg" xmlns:xlink="http://www.w3.org/1999/xlink">
<title>Fill 2</title>
<desc>Created using Figma</desc>
<g id="Canvas" transform="translate(5508 -5970)">
<g id="Fill 2">
<use xlink:href="#path0_fill" transform="translate(-5507.16 5970.46)" fill="#FFFFFE"/>
</g>
</g>
<defs>
<path id="path0_fill" fill-rule="evenodd" d="M 5.38193 16.1661C 3.35893 16.1661 1.89893 14.8871 1.89893 13.3491C 1.89893 11.8421 3.71093 10.5881 5.73293 10.6101C 6.20493 10.6151 6.64493 10.6911 7.04393 10.8201C 8.13993 11.5841 8.92793 12.0141 9.14993 12.8841C 9.19193 13.0611 9.21493 13.2421 9.21493 13.4271C 9.21493 14.9651 8.22493 16.1661 5.38193 16.1661ZM 5.91301 7.151C 4.55701 7.11 3.26601 5.632 3.03201 3.851C 2.79801 2.068 3.70901 0.704999 5.06501 0.744999C 6.42101 0.785999 7.71201 2.215 7.94601 3.997C 8.18001 5.779 7.27001 7.192 5.91301 7.151ZM 8.727 9.79C 8.251 9.453 7.341 8.633 7.341 8.151C 7.341 7.586 7.502 7.309 8.352 6.645C 9.223 5.964 9.839 5.006 9.839 3.894C 9.839 2.569 9.249 1.278 8.142 0.851L 9.812 0.851L 10.99 0L 5.723 0C 3.362 0 1.139 1.789 1.139 3.86C 1.139 5.978 2.749 7.688 5.151 7.688C 5.319 7.688 5.481 7.684 5.64 7.673C 5.484 7.971 5.372 8.308 5.372 8.656C 5.372 9.245 5.689 9.722 6.089 10.112C 5.786 10.112 5.494 10.121 5.176 10.121C 2.251 10.121 0 11.983 0 13.915C 0 15.818 2.468 17.007 5.392 17.007C 8.727 17.007 10.569 15.116 10.569 13.213C 10.569 11.687 10.119 10.774 8.727 9.79ZM 16.3909 7.30588L 14.3399 7.30588L 14.3399 5.25488L 12.6899 5.25488L 12.6899 7.30588L 10.6389 7.30588L 10.6389 8.95588L 12.6899 8.95588L 12.6899 11.0069L 14.3399 11.0069L 14.3399 8.95588L 16.3909 8.95588L 16.3909 7.30588Z"/>
</defs>
</svg>
