<svg width="17" height="17" viewBox="0 0 17 17" version="1.1" xmlns="http://www.w3.org/2000/svg" xmlns:xlink="http://www.w3.org/1999/xlink">
<title>Vector</title>
<desc>Created using Figma</desc>
<g id="Canvas" transform="translate(5463 -5970)">
<g id="Vector">
<use xlink:href="#path0_fill" transform="translate(-5463 5970)" fill="#FFFFFF"/>
</g>
</g>
<defs>
<path id="path0_fill" d="M 4.92105 2.82226e-06C 2.21028 2.82226e-06 0 2.21027 0 4.92105L 0 12.0789C 0 14.7897 2.21028 17 4.92105 17L 12.0789 17C 14.7897 17 17 14.7897 17 12.0789L 17 4.92105C 17 2.21027 14.7897 2.82226e-06 12.0789 2.82226e-06L 4.92105 2.82226e-06ZM 4.92105 1.78948L 12.0789 1.78948C 13.8293 1.78948 15.2105 3.1707 15.2105 4.92105L 15.2105 12.0789C 15.2105 13.8293 13.8293 15.2105 12.0789 15.2105L 4.92105 15.2105C 3.17069 15.2105 1.78947 13.8293 1.78947 12.0789L 1.78947 4.92105C 1.78947 3.1707 3.17069 1.78948 4.92105 1.78948ZM 12.9737 3.13158C 12.4795 3.13158 12.0789 3.53215 12.0789 4.02632C 12.0789 4.52046 12.4795 4.92105 12.9737 4.92105C 13.4678 4.92105 13.8684 4.52046 13.8684 4.02632C 13.8684 3.53215 13.4678 3.13158 12.9737 3.13158ZM 8.5 3.80263C 5.9163 3.80263 3.80263 5.91633 3.80263 8.5C 3.80263 11.0837 5.9163 13.1974 8.5 13.1974C 11.0837 13.1974 13.1974 11.0837 13.1974 8.5C 13.1974 5.91633 11.0837 3.80263 8.5 3.80263ZM 8.5 5.59211C 10.1166 5.59211 11.4079 6.88343 11.4079 8.5C 11.4079 10.1166 10.1166 11.4079 8.5 11.4079C 6.88341 11.4079 5.59211 10.1166 5.59211 8.5C 5.59211 6.88343 6.88341 5.59211 8.5 5.59211Z"/>
</defs>
</svg>
