<svg width="136" height="149" viewBox="0 0 136 149" version="1.1" xmlns="http://www.w3.org/2000/svg" xmlns:xlink="http://www.w3.org/1999/xlink">
<title>Layer 1</title>
<desc>Created using Figma</desc>
<g id="Canvas" transform="translate(5560 -5587)">
<g id="Layer 1">
<g id="Vector">
<use xlink:href="#path0_fill" transform="matrix(0.997079 -0.0763776 0.0763776 0.997079 -5454.27 5681.69)" fill="#FFFFFF"/>
</g>
<g id="Vector">
<use xlink:href="#path1_fill" transform="matrix(0.997079 -0.0763776 0.0763776 0.997079 -5471.77 5698.71)" fill="#FFFFFF"/>
</g>
<g id="Vector">
<use xlink:href="#path2_fill" transform="matrix(0.997079 -0.0763776 0.0763776 0.997079 -5495.96 5711.03)" fill="#FFFFFF"/>
</g>
<g id="Vector">
<use xlink:href="#path3_fill" transform="matrix(0.997079 -0.0763776 0.0763776 0.997079 -5529.67 5703.97)" fill="#FFFFFF"/>
</g>
<g id="Vector">
<use xlink:href="#path4_fill" transform="matrix(0.997079 -0.0763776 0.0763776 0.997079 -5549.67 5692.19)" fill="#FFFFFF"/>
</g>
<g id="Vector">
<use xlink:href="#path5_fill" transform="matrix(0.997079 -0.0763776 0.0763776 0.997079 -5560 5675.91)" fill="#FFFFFF"/>
</g>
<g id="Vector">
<use xlink:href="#path6_fill" transform="translate(-5554.68 5622.52)" fill="#FFFFFF"/>
</g>
<g id="Vector">
<use xlink:href="#path7_fill" transform="translate(-5540.53 5599.08)" fill="#FFFFFF"/>
</g>
<g id="Vector">
<use xlink:href="#path8_fill" transform="translate(-5518.47 5588.75)" fill="#FFFFFF"/>
</g>
<g id="Vector">
<use xlink:href="#path9_fill" transform="translate(-5492.34 5587)" fill="#FFFFFF"/>
</g>
<g id="Vector">
<use xlink:href="#path10_fill" transform="translate(-5476.2 5590.62)" fill="#FFFFFF"/>
</g>
<g id="Vector">
<use xlink:href="#path11_fill" transform="translate(-5457.04 5606.94)" fill="#FFFFFF"/>
</g>
</g>
</g>
<defs>
<path id="path0_fill" d="M 27.2035 16.4759L 19.4558 10.5744L 12.648 19.5474L 20.3957 25.4489L 18.5573 27.8648L 4.21842e-06 13.784L 1.83844 11.3682L 10.54 17.953L 17.3478 8.97995L 8.64624 2.39512L 10.457 3.37028e-06L 29.0212 14.0532L 27.2035 16.4759Z"/>
<path id="path1_fill" d="M 15.7581 9.06277L 14.2653 1.52542L 16.9745 -4.63414e-06L 21.5223 24.1582L 18.3637 25.939L 8.43684e-07 9.58045L 2.79914 8.00672L 8.5633 13.1559L 15.7581 9.06277ZM 10.229 14.8538L 15.5093 19.5681C 16.7119 20.6311 17.6933 21.6388 18.654 22.6673L 18.7162 22.6673C 18.3361 21.2868 17.9698 19.9064 17.6657 18.4293L 16.3387 11.4441L 10.229 14.8538Z"/>
<path id="path2_fill" d="M 4.05012 11.3682C 4.40951 14.5916 4.84494 18.4776 4.97625 21.3696L 5.07992 21.3696C 5.71578 18.6087 6.51751 15.6545 7.49893 12.3966L 10.9547 0.8904L 13.2285 0.759254L 17.6519 11.5821C 18.9443 14.7917 20.0501 17.7321 20.8657 20.4516L 20.9348 20.4516C 20.8381 17.5526 20.7828 13.6528 20.7897 10.1602L 20.8311 0.172561L 23.6925 2.52771e-06L 23.4229 23.3161L 19.594 23.537L 14.9702 12.5416C 13.8437 9.7323 12.8968 7.23366 12.2056 4.85235L 12.102 4.85235C 11.6527 7.22675 10.9754 9.82893 10.1115 12.8176L 6.59353 24.2893L 2.76458 24.5102L -6.32763e-07 1.37356L 2.93046 1.201L 4.05012 11.3682Z"/>
<path id="path3_fill" d="M 7.63025 10.7331C 6.35854 13.7219 4.81729 17.3111 3.48338 19.8995L 3.58014 19.9478C 5.49461 17.8771 7.64407 15.6752 10.1184 13.3077L 18.8199 4.99039L 20.8933 5.99814L 19.3797 17.601C 18.9236 21.0521 18.4329 24.1375 17.8039 26.9053L 17.8661 26.9053C 19.2069 24.3377 21.0869 20.9141 22.8078 17.8771L 27.7772 9.19391L 30.3482 10.464L 18.5987 30.6257L 15.143 28.9346L 16.5253 17.0833C 16.9262 14.0877 17.3409 11.4441 17.9076 9.01446L 17.8177 8.97304C 16.2488 10.816 14.362 12.7417 12.1503 14.9229L 3.45573 23.2057L -7.38224e-07 21.5146L 8.9849 8.42571e-07L 11.6182 1.29074L 7.63025 10.7331Z"/>
<path id="path4_fill" d="M 9.83501 7.76513L 15.6337 14.7089L 22.0683 9.35267L 15.5992 1.61515L 17.5413 0L 25.9456 10.0429L 8.05876 24.952L -2.10921e-07 15.2887L 1.93521 13.6735L 8.07259 21.0107L 13.7262 16.3033L 7.92053 9.35957L 9.83501 7.76513Z"/>
<path id="path5_fill" d="M 3.48399 22.1772C 2.50056 20.5126 1.67232 18.7612 1.00968 16.9452C -0.116884 13.9358 -0.28967 11.7892 0.436033 9.97388C 0.753431 9.21253 1.23037 8.52787 1.83478 7.96593C 2.43919 7.40398 3.15707 6.97778 3.94014 6.71598C 5.18907 6.22279 6.56591 6.15431 7.85772 6.52113C 9.14953 6.88795 10.2843 7.66962 11.0866 8.74526L 11.1834 8.74526C 11.1419 6.84712 12.3237 5.2941 14.3903 3.91363C 17.1549 2.0707 19.0832 0.766157 19.7536 -2.52771e-06L 20.8456 2.91279C 20.3618 3.49949 18.6616 4.67978 16.1734 6.30874C 13.4088 8.08264 12.7177 9.66328 13.5609 12.2586L 14.5423 14.8607L 23.9972 11.3336L 25.0477 14.1498L 3.48399 22.1772ZM 12.3721 15.6545L 11.2939 12.7762C 10.1674 9.77372 7.80365 8.48298 5.31552 9.40789C 2.49565 10.457 2.02567 12.9557 3.10386 15.9444C 3.42895 16.8855 3.86514 17.7845 4.40321 18.6225L 12.3721 15.6545Z"/>
<path id="path6_fill" d="M -1.05461e-07 2.51245L 1.65875 -6.31928e-07L 19.0065 11.4165L 24.4735 3.13366L 26.5469 4.51413L 19.4558 15.3025L -1.05461e-07 2.51245Z"/>
<path id="path7_fill" d="M 17.1404 10.0084L 10.0562 15.62L 15.2951 22.1841L 23.181 15.903L 24.7914 17.8702L 14.5141 26.0218L -5.80033e-07 7.82726L 9.83501 0L 11.4108 1.97407L 3.9188 7.93769L 8.50801 13.6873L 15.5923 8.04813L 17.1404 10.0084Z"/>
<path id="path8_fill" d="M 21.9707 20.2851C 20.0219 21.7509 17.8395 22.8779 15.5154 23.619C 12.1496 24.6612 9.10851 24.6681 6.28172 23.2669C 3.80051 22.0107 1.6856 19.4154 0.614326 15.9505C -1.41764 9.2966 1.63722 3.0845 9.09469 0.744602C 10.9832 0.117848 12.9799 -0.117031 14.9625 0.0543676L 14.9625 2.61514C 13.2049 2.41927 11.4257 2.61252 9.75128 3.18113C 4.33961 4.8584 1.85148 9.31731 3.57935 14.9151C 5.30721 20.5129 9.79966 22.8252 14.9487 21.2238C 16.2882 20.8828 17.5409 20.2643 18.6256 19.4085L 16.5522 12.7823L 12.0321 14.1628L 11.3409 11.8505L 18.6256 9.60031L 21.9707 20.2851Z"/>
<path id="path9_fill" d="M 12.7793 13.1559L 3.74601 12.5347L 3.17236 20.9003L 13.2354 21.5905L 13.0627 24.103L -1.05461e-06 23.2057L 1.59655 0L 14.1478 0.862793L 13.975 3.37524L 4.42333 2.71952L 3.9188 10.0498L 12.9521 10.671L 12.7793 13.1559Z"/>
<path id="path10_fill" d="M -6.32763e-07 20.99L 10.0285 0L 12.9935 1.38047L 14.6523 15.1852C 15.0146 18.0443 15.1878 20.9242 15.1707 23.8062L 15.2467 23.8062C 16.3387 20.8796 17.4929 18.2843 19.0549 15.0264L 23.2502 6.24662L 25.8074 7.46143L 15.7512 28.5067L 12.9866 27.2021L 11.4039 13.3974C 11.0295 10.4532 10.8356 7.48888 10.8233 4.52103L 10.7128 4.52103C 9.60693 7.24056 8.45962 9.79442 6.79396 13.2801L 2.50886 22.2531L -6.32763e-07 20.99Z"/>
<path id="path11_fill" d="M 17.5689 -4.21285e-07C 19.1757 1.41218 20.675 2.94182 22.0545 4.57625C 24.819 7.88247 26.0424 10.8781 25.8972 13.6597C 25.7521 16.4414 24.5149 19.1195 21.6052 21.5353C 18.6955 23.9511 15.5577 25.0762 12.489 24.7863C 9.42032 24.4964 6.2134 22.5292 3.29676 19.0643C 2.11714 17.6776 1.01648 16.2258 -5.0621e-06 14.7158L 17.5689 -4.21285e-07ZM 3.74602 15.5234C 4.29212 16.3819 4.90449 17.1965 5.57755 17.9599C 9.72442 22.8744 14.7076 23.2402 19.5249 19.2023C 23.7547 15.6959 24.4251 11.0783 20.3335 6.21211C 19.5889 5.29663 18.7503 4.4615 17.8316 3.72036L 3.74602 15.5234Z"/>
</defs>
</svg>
