<svg width="125" height="65" viewBox="0 0 125 65" version="1.1" xmlns="http://www.w3.org/2000/svg" xmlns:xlink="http://www.w3.org/1999/xlink">
<title>Fitness</title>
<desc>Created using Figma</desc>
<g id="Canvas" transform="translate(4460 80)">
<g id="legend">
<use xlink:href="#path0_fill" transform="translate(-4441.78 -48)" fill="url(#paint0_linear)"/>
<use xlink:href="#path1_fill" transform="translate(-4441.78 -48)" fill="url(#paint1_linear)"/>
<use xlink:href="#path2_fill" transform="translate(-4441.78 -48)" fill="url(#paint2_linear)"/>
<use xlink:href="#path3_fill" transform="translate(-4441.78 -48)" fill="url(#paint3_linear)"/>
<use xlink:href="#path4_fill" transform="translate(-4441.78 -48)" fill="url(#paint4_linear)"/>
<use xlink:href="#path5_fill" transform="translate(-4441.78 -48)" fill="url(#paint5_linear)"/>
</g>
<g id="logo">
<g id="Group">
<g id="Vector">
<use xlink:href="#path6_fill" transform="translate(-4421.59 -79.0982)" fill="#FFFFFF"/>
</g>
<g id="Vector">
<use xlink:href="#path7_fill" transform="translate(-4396.07 -79.0982)" fill="#FFFFFF"/>
</g>
<g id="Vector">
<use xlink:href="#path8_fill" transform="translate(-4370.97 -79.0982)" fill="#FFFFFF"/>
</g>
<g id="Vector">
<use xlink:href="#path9_fill" transform="translate(-4460 -79.0982)" fill="#FFFFFF"/>
</g>
<g id="Vector">
<use xlink:href="#path10_fill" transform="translate(-4353.27 -79.082)" fill="#FFFFFF"/>
</g>
<g id="Vector">
<use xlink:href="#path11_fill" transform="translate(-4441.54 -80)" fill="#FFFFFF"/>
</g>
</g>
</g>
</g>
<defs>
<linearGradient id="paint0_linear" x1="0" y1="0" x2="1" y2="0" gradientUnits="userSpaceOnUse" gradientTransform="matrix(-68.1876 30.4131 -79.7268 -178.224 124.378 89.0204)">
<stop offset="0" stop-color="#F0D800"/>
<stop offset="1" stop-color="#CCA94E"/>
</linearGradient>
<linearGradient id="paint1_linear" x1="0" y1="0" x2="1" y2="0" gradientUnits="userSpaceOnUse" gradientTransform="matrix(-68.1876 30.4131 -79.7268 -178.224 124.378 89.0204)">
<stop offset="0" stop-color="#F0D800"/>
<stop offset="1" stop-color="#CCA94E"/>
</linearGradient>
<linearGradient id="paint2_linear" x1="0" y1="0" x2="1" y2="0" gradientUnits="userSpaceOnUse" gradientTransform="matrix(-68.1876 30.4131 -79.7268 -178.224 124.378 89.0204)">
<stop offset="0" stop-color="#F0D800"/>
<stop offset="1" stop-color="#CCA94E"/>
</linearGradient>
<linearGradient id="paint3_linear" x1="0" y1="0" x2="1" y2="0" gradientUnits="userSpaceOnUse" gradientTransform="matrix(-68.1876 30.4131 -79.7268 -178.224 124.378 89.0204)">
<stop offset="0" stop-color="#F0D800"/>
<stop offset="1" stop-color="#CCA94E"/>
</linearGradient>
<linearGradient id="paint4_linear" x1="0" y1="0" x2="1" y2="0" gradientUnits="userSpaceOnUse" gradientTransform="matrix(-68.1876 30.4131 -79.7268 -178.224 124.378 89.0204)">
<stop offset="0" stop-color="#F0D800"/>
<stop offset="1" stop-color="#CCA94E"/>
</linearGradient>
<linearGradient id="paint5_linear" x1="0" y1="0" x2="1" y2="0" gradientUnits="userSpaceOnUse" gradientTransform="matrix(-68.1876 30.4131 -79.7268 -178.224 124.378 89.0204)">
<stop offset="0" stop-color="#F0D800"/>
<stop offset="1" stop-color="#CCA94E"/>
</linearGradient>
<path id="path0_fill" d="M 10.9218 20.0312C 9.44825 21.4154 8.15345 22.4396 7.03743 23.104C 5.93224 23.7573 4.87582 24.084 3.86815 24.084C 2.70879 24.084 1.77155 23.6245 1.05643 22.7054C 0.352142 21.7863 0 20.5517 0 19.0014C 0 16.6761 0.492999 13.8857 1.479 10.6302C 2.465 7.37469 3.66228 4.37388 5.07085 1.62775L 9.19904 0.0664386C 9.32906 0.0221462 9.42658 0 9.49159 0C 9.80581 0 10.0604 0.238072 10.2555 0.714215C 10.4613 1.17929 10.5643 1.81045 10.5643 2.60772C 10.5643 4.86663 10.055 7.05357 9.03652 9.16853C 8.01801 11.2835 6.42524 13.5424 4.25821 15.9453C 4.17153 17.0969 4.12819 17.8886 4.12819 18.3204C 4.12819 19.2838 4.30155 20.0479 4.64828 20.6126C 4.995 21.1773 5.4555 21.4597 6.02976 21.4597C 6.61486 21.4597 7.23788 21.2437 7.89882 20.8119C 8.55977 20.38 9.56744 19.4831 10.9218 18.1211L 10.9218 20.0312ZM 4.69704 13.5369C 6.0731 11.9756 7.18912 10.226 8.0451 8.28822C 8.90108 6.35043 9.32906 4.68392 9.32906 3.28871C 9.32906 2.87901 9.26947 2.55235 9.15028 2.30874C 9.0311 2.05406 8.87941 1.92672 8.69521 1.92672C 8.29431 1.92672 7.70921 2.94545 6.93991 4.9829C 6.18145 7.02035 5.43383 9.87167 4.69704 13.5369Z"/>
<path id="path1_fill" d="M 23.0789 20.0312C 21.7028 21.4154 20.4676 22.4396 19.3732 23.104C 18.2789 23.7573 17.0708 24.084 15.7489 24.084C 14.2753 24.084 13.0834 23.6023 12.1733 22.639C 11.274 21.6756 10.8243 20.4077 10.8243 18.8354C 10.8243 16.4879 11.6207 14.3674 13.2135 12.4739C 14.8062 10.5693 16.5724 9.61699 18.5119 9.61699C 19.5195 9.61699 20.3267 9.88274 20.9335 10.4143C 21.5403 10.9458 21.8437 11.6434 21.8437 12.5071C 21.8437 14.7992 19.4599 16.6595 14.6925 18.0879C 15.1259 20.2472 16.2581 21.3268 18.0893 21.3268C 18.8044 21.3268 19.487 21.133 20.1371 20.7455C 20.7872 20.3468 21.7678 19.4721 23.0789 18.1211L 23.0789 20.0312ZM 14.5624 16.9585C 17.3362 16.1612 18.7231 14.6885 18.7231 12.5403C 18.7231 11.4773 18.3439 10.9458 17.5854 10.9458C 16.8703 10.9458 16.1877 11.505 15.5376 12.6233C 14.8875 13.7306 14.5624 15.1757 14.5624 16.9585Z"/>
<path id="path2_fill" d="M 39.039 20.0312C 37.663 21.504 36.016 22.5891 34.0982 23.2867C 33.1989 26.1547 32.0558 28.3638 30.6689 29.914C 29.2928 31.4642 27.8301 32.2393 26.2807 32.2393C 25.4355 32.2393 24.7529 31.9681 24.2328 31.4255C 23.7127 30.8829 23.4527 30.1687 23.4527 29.2828C 23.4527 28.098 23.9674 27.035 24.9967 26.0938C 26.0369 25.1526 27.7976 24.2446 30.2788 23.3698L 30.9777 20.0977C 29.9375 21.2936 29.0382 22.1739 28.2797 22.7386C 27.5213 23.2923 26.7574 23.5691 25.9881 23.5691C 25.0888 23.5691 24.352 23.1373 23.7777 22.2735C 23.2035 21.4098 22.9163 20.2859 22.9163 18.9018C 22.9163 16.6429 23.7561 14.5279 25.4355 12.5569C 27.1258 10.5748 28.919 9.58377 30.8152 9.58377C 31.8662 9.58377 32.798 10.0378 33.6106 10.9458C 34.0982 10.7686 34.7321 10.5028 35.5122 10.1485L 36.6661 9.61699L 37.04 9.61699C 36.6174 10.9236 36.2923 12.197 36.0648 13.4372L 34.537 21.7586C 35.9998 21.1939 37.5005 19.9814 39.039 18.1211L 39.039 20.0312ZM 28.5723 20.5794C 29.3416 20.5794 30.0242 20.1143 30.6201 19.1842C 31.2161 18.254 31.6766 17.0747 32.0016 15.6463C 32.3375 14.2179 32.5054 13.2268 32.5054 12.6732C 32.5054 12.1527 32.3754 11.7264 32.1154 11.3942C 31.8662 11.051 31.552 10.8793 31.1727 10.8793C 30.0242 10.8793 29.0219 11.6711 28.166 13.2545C 27.31 14.838 26.882 16.4491 26.882 18.0879C 26.882 18.852 27.0337 19.461 27.3371 19.915C 27.6513 20.3579 28.063 20.5794 28.5723 20.5794ZM 29.9375 24.8314C 26.4378 26.1159 24.6879 27.5997 24.6879 29.2828C 24.6879 29.7811 24.8342 30.1853 25.1267 30.4953C 25.4193 30.8164 25.7931 30.977 26.2481 30.977C 27.0283 30.977 27.7055 30.4732 28.2797 29.4655C 28.854 28.4579 29.4066 26.9132 29.9375 24.8314Z"/>
<path id="path3_fill" d="M 51.1961 20.0312C 49.82 21.4154 48.5848 22.4396 47.4905 23.104C 46.3961 23.7573 45.188 24.084 43.8661 24.084C 42.3925 24.084 41.2007 23.6023 40.2905 22.639C 39.3912 21.6756 38.9415 20.4077 38.9415 18.8354C 38.9415 16.4879 39.7379 14.3674 41.3307 12.4739C 42.9234 10.5693 44.6896 9.61699 46.6291 9.61699C 47.6367 9.61699 48.444 9.88274 49.0507 10.4143C 49.6575 10.9458 49.9609 11.6434 49.9609 12.5071C 49.9609 14.7992 47.5771 16.6595 42.8097 18.0879C 43.2431 20.2472 44.3754 21.3268 46.2065 21.3268C 46.9216 21.3268 47.6042 21.133 48.2543 20.7455C 48.9044 20.3468 49.885 19.4721 51.1961 18.1211L 51.1961 20.0312ZM 42.6797 16.9585C 45.4535 16.1612 46.8404 14.6885 46.8404 12.5403C 46.8404 11.4773 46.4611 10.9458 45.7027 10.9458C 44.9875 10.9458 44.3049 11.505 43.6548 12.6233C 43.0047 13.7306 42.6797 15.1757 42.6797 16.9585Z"/>
<path id="path4_fill" d="M 67.1563 20.0312C 64.6533 22.7331 62.508 24.084 60.7202 24.084C 59.9942 24.084 59.4091 23.8238 58.9649 23.3033C 58.5206 22.7829 58.2985 22.0853 58.2985 21.2105C 58.2985 20.0257 58.7753 18.2153 59.7288 15.7792C 60.238 14.4725 60.4926 13.6421 60.4926 13.2877C 60.4926 12.9334 60.3572 12.7562 60.0863 12.7562C 59.9346 12.7562 59.7342 12.8337 59.485 12.9888C 59.2574 13.1438 58.992 13.3597 58.6886 13.6365C 58.4177 13.8912 58.1143 14.2013 57.7784 14.5667C 57.4859 14.8767 57.1717 15.2311 56.8358 15.6297L 55.9256 16.7093C 55.5247 17.2076 55.2755 17.7336 55.178 18.2872C 55.0155 19.2284 54.9071 20.0921 54.8529 20.8783C 54.8204 21.4652 54.8042 22.2569 54.8042 23.2535L 51.2123 24.1172C 51.0931 22.6224 51.0336 21.5095 51.0336 20.7787C 51.0336 18.9959 51.234 17.3073 51.6349 15.7127C 52.0466 14.1182 52.7022 12.3244 53.6015 10.3312L 57.5672 9.55055C 56.7328 11.8427 56.1857 13.6476 55.9256 14.9653C 57.7026 12.9389 59.1112 11.5382 60.1513 10.7631C 61.2023 9.97687 62.1342 9.58377 62.9468 9.58377C 63.4994 9.58377 63.9599 9.7997 64.3283 10.2315C 64.6967 10.6523 64.8809 11.1838 64.8809 11.8261C 64.8809 12.8891 64.415 14.6386 63.4831 17.0747C 62.8439 18.7468 62.5242 19.8319 62.5242 20.3302C 62.5242 20.9946 62.7897 21.3268 63.3206 21.3268C 64.1116 21.3268 65.3901 20.2582 67.1563 18.1211L 67.1563 20.0312Z"/>
<path id="path5_fill" d="M 84.5142 20.0312C 82.9539 21.6147 81.762 22.6888 80.9386 23.2535C 80.1259 23.8072 79.4054 24.084 78.777 24.084C 78.0077 24.084 77.3955 23.702 76.9404 22.9379C 76.4962 22.1739 76.2686 21.0555 76.2578 19.5828C 75.3693 21.0555 74.3996 22.1739 73.3485 22.9379C 72.3084 23.702 71.3657 24.084 70.5206 24.084C 69.5996 24.084 68.7869 23.6411 68.0827 22.7552C 67.3784 21.8583 67.0262 20.8119 67.0262 19.616C 67.0262 17.1467 67.9039 14.8601 69.6592 12.7562C 71.4253 10.6413 73.3215 9.58377 75.3476 9.58377C 75.9111 9.58377 76.3499 9.66682 76.6641 9.83292C 76.9892 9.99901 77.3413 10.2814 77.7205 10.68L 80.0447 0.747434C 81.9408 0.293437 83.2194 0.0664386 83.8803 0.0664386C 84.097 0.0664386 84.2054 0.155023 84.2054 0.332193C 84.2054 0.453997 83.9345 1.60006 83.3927 3.77039C 81.2257 12.4517 80.1422 17.6893 80.1422 19.4831C 80.1422 19.9039 80.2289 20.2416 80.4022 20.4963C 80.5756 20.751 80.8031 20.8783 81.0848 20.8783C 81.7783 20.8783 82.9214 19.9593 84.5142 18.1211L 84.5142 20.0312ZM 72.7635 20.9116C 73.8253 20.9116 74.8167 19.9925 75.7377 18.1544C 76.6587 16.3162 77.1192 14.5944 77.1192 12.9888C 77.1192 12.3354 76.9729 11.815 76.6804 11.4274C 76.3986 11.0399 76.0248 10.8461 75.5589 10.8461C 74.5512 10.8461 73.5761 11.8095 72.6334 13.7362C 71.6908 15.6518 71.2194 17.3848 71.2194 18.935C 71.2194 19.544 71.3549 20.0257 71.6258 20.38C 71.9075 20.7344 72.2867 20.9116 72.7635 20.9116Z"/>
<path id="path6_fill" d="M 7.71013 13.3112L 6.29257 26.5189L -2.11026e-06 26.5189L 2.90426 2.10479e-06L 7.43353 2.10479e-06L 12.4468 9.93165L 17.4947 2.10479e-06L 21.9548 2.10479e-06L 24.8591 26.5189L 18.5665 26.5189L 17.149 13.3801L 13.0346 21.5186L 12.9309 21.6565L 12.8617 21.76L 12.7234 21.8289L 12.516 21.8979L 12.3431 21.8979L 12.2394 21.8979L 12.1011 21.8289L 11.9628 21.6565L 7.71013 13.3112Z"/>
<path id="path7_fill" d="M 7.71012 13.3112L 6.29257 26.5189L 4.22053e-06 26.5189L 2.90426 2.10479e-06L 7.43353 2.10479e-06L 12.4468 9.93165L 17.4947 2.10479e-06L 21.9548 2.10479e-06L 24.8591 26.5189L 18.5665 26.5189L 17.149 13.3801L 13.0346 21.5186L 12.9309 21.6565L 12.8617 21.76L 12.7234 21.8289L 12.516 21.8979L 12.3431 21.8979L 12.2394 21.8979L 12.1011 21.8289L 11.9628 21.6565L 7.71012 13.3112Z"/>
<path id="path8_fill" d="M 7.77927 16.2769L 7.77927 20.3116L 15.8697 20.3116L 15.8697 26.5189L 1.55585 26.5189L 1.55585 16.2769L -4.22053e-06 10.0351L 1.55585 10.0351L 1.55585 2.10479e-06L 15.8697 2.10479e-06L 15.8697 6.24177L 7.77927 6.24177L 7.77927 10.0351L 14.7288 10.0351L 16.2846 16.2769L 7.77927 16.2769Z"/>
<path id="path9_fill" d="M 6.29257 16.6907L 6.29257 27.381L 0.034574 31.8589L 0 30.4847L 0.034574 30.4847L 0.034574 0L 6.29257 0L 6.29257 10.4834L 11.375 10.4834L 11.375 0L 17.5984 0L 17.5984 26.5189L 11.375 26.5189L 11.375 16.6907L 6.29257 16.6907Z"/>
<path id="path10_fill" d="M 18.245 9.95476L 18.245 9.73164L 18.2201 9.50818L 18.1952 9.25989L 18.171 9.03643L 18.1209 8.78813L 18.096 8.56467L 18.0458 8.34155L 17.9964 8.11809L 17.9214 7.89497L 17.8712 7.64634L 17.7962 7.42322L 17.7219 7.19976L 17.6469 6.97664L 17.5725 6.77801L 17.4975 6.55455L 17.3983 6.33143L 17.2983 6.10797L 17.1991 5.90933L 17.0992 5.68622L 16.9751 5.48758L 16.8758 5.28895L 16.751 5.09032L 16.6269 4.89203L 16.5028 4.6934L 16.378 4.49476L 16.2286 4.29613L 16.0792 4.12233L 15.9551 3.92369L 15.8058 3.74989L 15.6557 3.57608L 15.4815 3.40228L 15.3321 3.22848L 15.1578 3.05467L 14.9836 2.88087L 14.8093 2.73155L 14.6351 2.58257L 14.4608 2.43325L 14.2866 2.25945L 14.0874 2.13565L 13.9131 1.98633L 13.714 1.86253L 13.5149 1.71321L 13.3157 1.58906L 13.1166 1.46492L 12.9174 1.3656L 12.7183 1.24146L 12.4949 1.14214L 12.2958 1.04282L 12.0717 0.943507L 11.8726 0.844191L 11.6485 0.744874L 11.4245 0.670387L 11.2011 0.595899L 10.9771 0.521412L 10.753 0.446924L 10.529 0.372437L 10.3056 0.322779L 10.0816 0.27312L 9.83232 0.198633L 9.60827 0.173804L 9.38492 0.124146L 9.13563 0.0993166L 8.91159 0.0744874L 8.68755 0.0496583L 8.43896 0.0248291L 8.21492 -2.55206e-09L 7.96563 -2.55206e-09L 7.74228 -2.55206e-09L -1.94144e-06 -2.55206e-09L -1.94144e-06 26.5175L 6.24831 26.5175L 6.24831 20.633L 6.22342 20.5089L 10.2064 26.5092L 17.6994 26.5092L 13.0688 19.5323L 13.119 19.5074L 13.1691 19.4829L 13.3683 19.3588L 13.5674 19.2346L 13.7666 19.0857L 13.9657 18.9615L 14.14 18.8126L 14.3391 18.6636L 14.5134 18.5143L 14.6869 18.3653L 14.8619 18.216L 15.0361 18.0422L 15.2104 17.8932L 15.3598 17.7194L 15.534 17.5456L 15.6834 17.3718L 15.8327 17.198L 15.9821 17.0242L 16.1321 16.8255L 16.2815 16.6517L 16.4056 16.4531L 16.5304 16.2545L 16.6546 16.0558L 16.7787 15.8572L 16.9035 15.6589L 17.0276 15.4354L 17.1269 15.2368L 17.2268 15.0382L 17.326 14.8151L 17.4259 14.5916L 17.5252 14.393L 17.6002 14.1698L 17.6745 13.9464L 17.7495 13.7233L 17.8246 13.4998L 17.8989 13.2767L 17.949 13.0532L 17.9992 12.8049L 18.0486 12.5815L 18.0987 12.3584L 18.1489 12.1349L 18.1738 11.8866L 18.198 11.6631L 18.2229 11.44L 18.2478 11.1914L 18.2478 10.9683L 18.2727 10.72L 18.2727 10.4965L 18.2727 10.422L 18.2727 10.1986L 18.245 9.95476ZM 11.3747 9.90545L 11.3747 10.0048L 11.3747 10.0792L 11.3747 10.1537L 11.3747 10.2531L 11.3747 10.3769L 11.3747 10.4269L 11.3747 10.5262L 11.3498 10.6255L 11.3498 10.7L 11.3249 10.8241L 11.3249 10.8738L 11.3 10.9428L 11.2751 11.0421L 11.2751 11.1414L 11.2257 11.2407L 11.2257 11.3152L 11.2008 11.3897L 11.1506 11.489L 11.1506 11.539L 11.1005 11.6383L 11.0756 11.7128L 11.0262 11.8121L 10.976 11.8811L 10.9511 11.9556L 10.9263 12.0052L 10.8761 12.1045L 10.8267 12.2039L 10.7765 12.2539L 10.7264 12.3284L 10.677 12.4277L 10.6521 12.4773L 10.502 12.6498L 10.4778 12.6746L 10.4277 12.7491L 10.3527 12.8239L 10.3032 12.8736L 10.2282 12.9729L 10.1532 13.0474L 10.1037 13.0722L 10.0536 13.1219L 9.97856 13.1908L 9.87933 13.2657L 9.8292 13.3153L 9.75417 13.3401L 9.70473 13.3898L 9.62971 13.4398L 9.53047 13.5143L 9.48035 13.5391L 9.38111 13.5888L 9.30609 13.6233L 9.23106 13.6729L 9.13184 13.7226L 9.05681 13.7474L 9.00736 13.7722L 8.93233 13.7971L 8.80822 13.8467L 8.75808 13.8716L 8.68306 13.8964L 8.55893 13.9309L 8.5088 13.9557L 8.40957 13.9805L 8.28545 14.005L 8.21042 14.0298L 8.16029 14.0298L 8.08595 14.0547L 7.96114 14.0795L 7.8868 14.0795L 7.81177 14.0795L 7.71255 14.104L 7.61263 14.104L 7.5134 14.104L 7.43837 14.104L 6.5173 14.104L 6.24381 14.104L 6.24381 6.20832L 7.5134 6.20832L 7.58773 6.20832L 7.68766 6.20832L 7.76199 6.23315L 7.86191 6.23315L 7.93624 6.23315L 8.06106 6.25763L 8.16029 6.28246L 8.18518 6.28246L 8.2851 6.30729L 8.38433 6.34177L 8.48425 6.36626L 8.53369 6.36626L 8.60872 6.39109L 8.75808 6.44075L 8.80822 6.46558L 8.85766 6.4904L 8.98247 6.54006L 9.0817 6.56489L 9.1066 6.58972L 9.23071 6.63938L 9.28085 6.67386L 9.35587 6.69835L 9.45511 6.74835L 9.53013 6.79801L 9.60446 6.84801L 9.67949 6.89767L 9.72962 6.94767L 9.82886 7.02216L 9.87898 7.04699L 9.92912 7.09665L 10.0035 7.16562L 10.0785 7.21562L 10.1528 7.29011L 10.2278 7.33977L 10.278 7.4146L 10.3523 7.48909L 10.4024 7.53875L 10.4526 7.61323L 10.502 7.66324L 10.5522 7.73772L 10.6272 7.84118L 10.6521 7.86601L 10.7015 7.9405L 10.7765 8.03981L 10.8014 8.08947L 10.8516 8.18879L 10.901 8.26327L 10.9511 8.36259L 11.0013 8.43708L 11.0262 8.51191L 11.0504 8.54639L 11.0753 8.62088L 11.1254 8.74503L 11.1503 8.81952L 11.1752 8.894L 11.2001 8.99332L 11.225 9.04332L 11.2492 9.16712L 11.2741 9.26644L 11.299 9.34093L 11.3239 9.41576L 11.3239 9.46542L 11.3488 9.58956L 11.3488 9.66405L 11.3736 9.76337L 11.3736 9.90545L 11.3747 9.90545Z"/>
<path id="path11_fill" d="M 1.5154 19.8612L 1.5154 20.3082L 1.5154 21.1772L 1.5154 27.4345L 7.76372 27.4345L 7.76372 22.4435L 7.76372 20.2585L 7.76372 17.6018L 12.8669 17.6018L 12.8669 27.4345L 19.1152 27.4345L 19.1152 11.568L 19.1152 8.78744L 19.1152 8.56398L 19.0903 8.34087L 19.0903 8.09257L 19.0654 7.86911L 19.0406 7.64565L 18.9908 7.39736L 18.9662 7.17424L 18.9161 6.95078L 18.8659 6.72732L 18.8162 6.5042L 18.7415 6.25591L 18.6665 6.03244L 18.5921 5.83381L 18.5171 5.61069L 18.4179 5.38723L 18.3428 5.16412L 18.2433 4.96548L 18.1188 4.74202L 18.0196 4.54339L 17.8951 4.3451L 17.7706 4.14647L 17.6465 3.94783L 17.522 3.7492L 17.3976 3.55057L 17.2482 3.37676L 17.0988 3.20296L 16.9495 3.00433L 16.7998 2.83052L 16.6255 2.68155L 16.4509 2.50774L 16.3016 2.33394L 16.1273 2.18496L 15.9281 2.03599L 15.7539 1.88701L 15.5796 1.73804L 15.3805 1.61389L 15.1813 1.46492L 14.9825 1.34077L 14.7834 1.21663L 14.5842 1.11731L 14.3854 0.993165L 14.1614 0.893849L 13.9622 0.794532L 13.7382 0.695216L 13.539 0.620728L 13.3154 0.521412L 13.0917 0.446924L 12.8676 0.372437L 12.6436 0.322779L 12.4199 0.248291L 12.1709 0.198633L 11.9469 0.148975L 11.7228 0.124146L 11.4992 0.0744874L 11.2502 0.0496583L 11.0262 0.0248291L 10.8021 0.0248291L 10.5532 -1.47175e-10L 10.3295 -1.47175e-10L 10.1055 -1.47175e-10L 9.88141 0.0248291L 9.65771 0.0248291L 9.40877 0.0496583L 9.18473 0.0744874L 8.96069 0.124146L 8.7121 0.148975L 8.48805 0.198633L 8.26401 0.248291L 8.03997 0.282776L 7.81627 0.357264L 7.59257 0.431751L 7.36853 0.506238L 7.14448 0.580726L 6.92079 0.680042L 6.72164 0.75453L 6.49794 0.853846L 6.29879 0.977992L 6.07475 1.08145L 5.8756 1.20559L 5.67645 1.32974L 5.4773 1.45388L 5.2785 1.57803L 5.10389 1.727L 4.90509 1.85115L 4.73084 2.00012L 4.55623 2.1491L 4.38198 2.29807L 4.20772 2.4705L 4.03347 2.6443L 3.8841 2.79328L 3.70985 2.96743L 3.56049 3.16571L 3.41113 3.33952L 3.26142 3.51367L 3.13695 3.71196L 3.01283 3.91059L 2.86347 4.1175L 2.76354 4.31613L 2.63942 4.51476L 2.51495 4.7134L 2.41538 4.93651L 2.3158 5.13515L 2.21623 5.35826L 2.14155 5.58173L 2.04197 5.78036L 1.96729 5.98727L 1.91751 6.21073L 1.84248 6.43385L 1.79269 6.65731L 1.71801 6.9056L 1.69312 7.12907L 1.64298 7.35218L 1.61844 7.57564L 1.56865 7.82394L 1.56865 8.0474L 1.54375 8.29569L 1.54375 8.51915L 1.51886 8.74227L 1.51886 8.81676L 1.51886 9.13988L 1.51886 10.0089L 1.51886 10.133L 1.51886 10.58L 1.51886 10.6793L 1.51886 11.3497L -1.28726e-06 11.3497L 1.51886 17.5814L 1.51886 19.0964L 1.51886 19.8612L 1.5154 19.8612ZM 7.76372 9.85475L 7.76372 8.76227L 7.76372 8.71261L 7.78861 8.63812L 7.78861 8.56329L 7.78861 8.51363L 7.78861 8.43915L 7.81316 8.33983L 7.81316 8.28983L 7.83805 8.24017L 7.83805 8.19017L 7.8626 8.09119L 7.88749 8.01636L 7.91239 7.9667L 7.91239 7.9167L 7.93728 7.86704L 7.96217 7.79255L 8.01196 7.71807L 8.03651 7.64324L 8.0614 7.59358L 8.0863 7.54392L 8.11119 7.49392L 8.16132 7.41943L 8.18587 7.36942L 8.23566 7.31977L 8.28579 7.24528L 8.31069 7.19528L 8.36047 7.14562L 8.41026 7.09561L 8.46039 7.04596L 8.51053 6.97147L 8.56031 6.94664L 8.58486 6.89698L 8.635 6.84698L 8.68513 6.82215L 8.73491 6.77249L 8.8096 6.72249L 8.85973 6.698L 8.90952 6.648L 8.9842 6.62352L 9.00909 6.57351L 9.08412 6.54868L 9.15845 6.49903L 9.20859 6.4742L 9.28327 6.44937L 9.33305 6.42488L 9.40808 6.40005L 9.45787 6.37523L 9.53255 6.35074L 9.58268 6.32591L 9.65736 6.32591L 9.73204 6.30108L 9.78218 6.27625L 9.85686 6.27625L 9.93154 6.25177L 9.98167 6.25177L 10.056 6.25177L 10.131 6.22694L 10.2057 6.22694L 10.2555 6.22694L 10.38 6.22694L 10.4547 6.22694L 10.5297 6.22694L 10.5795 6.25177L 10.6541 6.25177L 10.7537 6.27625L 10.8035 6.27625L 10.8536 6.27625L 10.9038 6.30108L 11.003 6.32591L 11.078 6.35074L 11.1278 6.35074L 11.1776 6.38523L 11.2277 6.41005L 11.3024 6.43488L 11.3771 6.45937L 11.4521 6.50937L 11.5019 6.5342L 11.5517 6.55868L 11.6018 6.58351L 11.6765 6.63352L 11.7263 6.658L 11.7764 6.69249L 11.8511 6.71697L 11.9009 6.76697L 11.951 6.7918L 12.0012 6.86629L 12.0755 6.91595L 12.1004 6.94078L 12.1505 6.99078L 12.2007 7.06527L 12.2501 7.08975L 12.3002 7.15872L 12.3251 7.18321L 12.3753 7.25804L 12.4251 7.3077L 12.4496 7.35736L 12.4997 7.43219L 12.5246 7.48185L 12.5495 7.53185L 12.5741 7.58151L 12.6239 7.65599L 12.6488 7.69048L 12.6736 7.76497L 12.6985 7.83945L 12.7234 7.88911L 12.7483 7.93912L 12.7729 8.0136L 12.7729 8.08809L 12.7974 8.13809L 12.8223 8.21258L 12.8223 8.28707L 12.8472 8.36156L 12.8472 8.41156L 12.8472 8.48605L 12.8721 8.56053L 12.8721 8.61054L 12.8721 8.68502L 12.8721 8.73468L 12.8721 10.1748L 12.8721 11.3421L 7.7689 11.3421L 7.7689 9.85475L 7.76372 9.85475Z"/>
</defs>
</svg>
